HIERARCHY
ROOT Hips
{
 OFFSET 0.000000 0.000000 0.000000
 CHANNELS 6 Xposition Yposition Zposition Yrotation Xrotation Zrotation
 JOINT Chest
 {
  OFFSET 0.000000 9.585900 0.002600
  CHANNELS 3 Yrotation Xrotation Zrotation
  JOINT Chest2
  {
   OFFSET 0.000000 9.601200 -0.005300
   CHANNELS 3 Yrotation Xrotation Zrotation
   JOINT Chest3
   {
    OFFSET 0.000000 9.561800 0.000000
    CHANNELS 3 Yrotation Xrotation Zrotation
    JOINT Chest4
    {
     OFFSET 0.000000 9.552100 0.000000
     CHANNELS 3 Yrotation Xrotation Zrotation
     JOINT Neck
     {
      OFFSET 0.000000 14.453000 0.000000
      CHANNELS 3 Yrotation Xrotation Zrotation
      JOINT Head
      {
       OFFSET 0.000000 8.936500 -0.011300
       CHANNELS 3 Yrotation Xrotation Zrotation
       End Site
       {
        OFFSET 0.000000 17.073600 -0.006000
       }
      }
     }
     JOINT RightCollar
     {
      OFFSET -2.921100 9.558500 0.000000
      CHANNELS 3 Yrotation Xrotation Zrotation
      JOINT RightShoulder
      {
       OFFSET -13.519700 0.000000 0.000000
       CHANNELS 3 Yrotation Xrotation Zrotation
       JOINT RightElbow
       {
        OFFSET 0.000000 -29.696600 0.000000
        CHANNELS 3 Yrotation Xrotation Zrotation
        JOINT RightWrist
        {
         OFFSET 0.000000 -24.004700 0.000000
         CHANNELS 3 Yrotation Xrotation Zrotation
         End Site
         {
          OFFSET 0.000000 -17.728500 0.000000
         }
        }
       }
      }
     }
     JOINT LeftCollar
     {
      OFFSET 2.921100 9.558500 0.000000
      CHANNELS 3 Yrotation Xrotation Zrotation
      JOINT LeftShoulder
      {
       OFFSET 13.519700 0.000000 0.000000
       CHANNELS 3 Yrotation Xrotation Zrotation
       JOINT LeftElbow
       {
        OFFSET 0.000000 -29.696600 0.000000
        CHANNELS 3 Yrotation Xrotation Zrotation
        JOINT LeftWrist
        {
         OFFSET 0.000000 -24.004700 0.000000
         CHANNELS 3 Yrotation Xrotation Zrotation
         End Site
         {
          OFFSET 0.000000 -17.728500 0.000000
         }
        }
       }
      }
     }
    }
   }
  }
 }
 JOINT RightHip
 {
  OFFSET -7.771700 -0.012900 -0.001300
  CHANNELS 3 Yrotation Xrotation Zrotation
  JOINT RightKnee
  {
   OFFSET 0.000000 -40.869800 0.001200
   CHANNELS 3 Yrotation Xrotation Zrotation
   JOINT RightAnkle
   {
    OFFSET 0.000000 -39.717900 0.002100
    CHANNELS 3 Yrotation Xrotation Zrotation
    JOINT RightToe
    {
     OFFSET 0.000000 -4.965400 11.033500
     CHANNELS 3 Yrotation Xrotation Zrotation
     End Site
     {
      OFFSET 0.000000 -1.423100 5.872300
     }
    }
   }
  }
 }
 JOINT LeftHip
 {
  OFFSET 7.771700 -0.012900 -0.001300
  CHANNELS 3 Yrotation Xrotation Zrotation
  JOINT LeftKnee
  {
   OFFSET 0.000000 -40.869800 0.001200
   CHANNELS 3 Yrotation Xrotation Zrotation
   JOINT LeftAnkle
   {
    OFFSET 0.000000 -39.717900 0.002100
    CHANNELS 3 Yrotation Xrotation Zrotation
    JOINT LeftToe
    {
     OFFSET 0.000000 -4.965400 11.033500
     CHANNELS 3 Yrotation Xrotation Zrotation
     End Site
     {
      OFFSET 0.000000 -1.423100 5.872300
     }
    }
   }
  }
 }
}
MOTION
Frames: 16
Frame Time: 0.008333
-56.484590 53.356245 48.654382 -179.823878 -32.282339 -10.811835 0.384511 13.628576 5.764348 0.060488 7.876533 2.129160 0.124194 9.800775 2.666393 0.063785 7.978801 2.139703 4.057655 22.504097 -1.909650 4.835071 -1.476451 -2.999402 -0.574099 1.326667 -2.805290 -16.104675 -3.700692 4.185261 -6.579716 -82.205433 20.551223 10.072986 -4.099402 -13.225520 -9.809590 2.845395 -3.749206 8.808145 -2.220174 -0.353571 -110.615928 -81.664821 117.540962 18.108626 -12.604369 -2.358150 -17.924120 -34.245014 4.562464 8.085843 85.459711 5.709467 2.756270 -15.366915 0.483224 -0.075573 0.266973 0.027853 -14.619247 -46.079716 15.119734 168.082533 78.635011 163.532011 -0.487993 -15.947106 1.466695 -1.079290 -3.192065 -0.474181
-56.479894 53.442665 48.642759 -179.793371 -32.223740 -10.837134 0.370197 13.631242 5.789475 0.058751 7.905113 2.131175 0.118980 9.859727 2.669688 0.059353 7.926118 2.133006 4.058356 22.474186 -1.892778 4.831300 -1.512654 -2.980984 -0.562651 1.258211 -2.842774 -16.055109 -3.680878 4.168018 -6.822381 -82.196532 20.791297 10.083368 -4.137452 -13.229766 -9.836085 2.815963 -3.748905 8.774730 -2.238054 -0.347597 -110.272938 -81.656198 117.217941 18.042674 -12.569985 -2.386884 -17.963532 -34.300739 4.599920 7.774219 85.505508 5.397762 2.753585 -15.418744 0.480285 -0.073729 0.271344 0.026348 -14.665162 -46.111333 15.147223 168.060883 78.656607 163.511793 -0.470988 -15.888272 1.471430 -1.095172 -3.248028 -0.481965
-56.478507 53.515184 48.634777 -179.752424 -32.154036 -10.849221 0.336028 13.608624 5.792265 0.052255 7.897332 2.127428 0.120279 9.923934 2.677766 0.054754 7.915120 2.131043 4.056869 22.445388 -1.878332 4.825698 -1.547514 -2.964711 -0.551339 1.195342 -2.887518 -16.033705 -3.670686 4.175627 -7.025157 -82.172698 21.016731 10.097696 -4.172253 -13.267785 -9.864432 2.785863 -3.749060 8.747153 -2.250990 -0.345958 -109.961058 -81.634448 116.935928 17.969970 -12.515102 -2.434182 -18.002587 -34.381149 4.632531 7.629217 85.562558 5.233607 2.732757 -15.477658 0.494033 -0.080596 0.279278 0.024568 -14.712192 -46.164339 15.161949 168.070487 78.674634 163.516620 -0.474771 -15.852613 1.480055 -1.093755 -3.276340 -0.484155
-56.477482 53.579061 48.626113 -179.730383 -32.112485 -10.852519 0.313105 13.584014 5.788060 0.054087 7.915300 2.130730 0.116969 9.929298 2.678105 0.053625 7.958609 2.137583 4.052142 22.417654 -1.866952 4.819903 -1.584560 -2.962069 -0.525265 1.137404 -2.976760 -16.025036 -3.639983 4.219686 -7.339538 -82.153786 21.350439 10.099715 -4.159602 -13.138401 -9.901156 2.816325 -3.743298 8.753038 -2.340473 -0.366247 -109.534645 -81.621521 116.507715 17.894691 -12.450874 -2.489980 -17.998065 -34.444355 4.649798 7.493405 85.625080 5.098751 2.687457 -15.539319 0.507745 -0.044682 0.290780 0.023659 -14.737808 -46.196896 15.169190 168.065868 78.680766 163.503546 -0.465048 -15.829221 1.488547 -1.107898 -3.299230 -0.489713
-56.478375 53.633612 48.620015 -179.703870 -32.071157 -10.852251 0.293974 13.597971 5.789406 0.060414 7.965599 2.141865 0.102713 9.863000 2.662677 0.053456 7.997565 2.143169 4.045395 22.391626 -1.857884 4.818075 -1.626385 -2.982120 -0.508566 1.069503 -3.025305 -16.029632 -3.623074 4.245012 -7.460234 -82.118982 21.514641 10.105675 -4.131151 -13.054895 -9.910064 2.790928 -3.736147 8.735493 -2.368839 -0.377018 -109.161837 -81.621686 116.128750 17.819689 -12.371394 -2.554289 -17.991539 -34.516815 4.653118 7.501478 85.694186 5.104110 2.677331 -15.597231 0.515581 -0.045409 0.299279 0.024113 -14.766478 -46.234726 15.178184 168.079908 78.684871 163.503411 -0.472530 -15.820348 1.492501 -1.111866 -3.304846 -0.482953
-56.483340 53.679696 48.616724 -179.671971 -32.026151 -10.837932 0.269916 13.604189 5.775048 0.056114 7.969104 2.140953 0.104850 9.938353 2.675756 0.043933 7.941372 2.132364 4.038254 22.367177 -1.851801 4.809180 -1.655553 -2.966473 -0.488277 1.006011 -3.072914 -16.021260 -3.590109 4.255268 -7.664578 -82.101196 21.749960 10.120630 -4.101193 -13.004932 -9.912503 2.743746 -3.732362 8.690284 -2.360806 -0.380783 -109.093020 -81.619265 116.093145 17.750975 -12.239150 -2.639358 -17.959462 -34.606932 4.626353 7.472201 85.770301 5.080351 2.686035 -15.653772 0.527999 -0.067526 0.305967 0.025279 -14.787385 -46.283605 15.172446 168.104555 78.688199 163.501941 -0.486541 -15.818185 1.512146 -1.117282 -3.298734 -0.478471
-56.489391 53.720144 48.614813 -179.644609 -31.990143 -10.824161 0.262173 13.639695 5.772489 0.043398 7.960156 2.136115 0.097344 9.937325 2.674010 0.040159 7.950440 2.133383 4.031959 22.342377 -1.850783 4.799113 -1.682581 -2.953305 -0.464374 0.943869 -3.122322 -16.015509 -3.561751 4.261978 -7.795032 -82.083362 21.912479 10.138998 -4.068344 -12.960841 -9.911463 2.697612 -3.730308 8.649340 -2.350572 -0.383460 -109.060732 -81.621056 116.088413 17.700132 -12.094259 -2.740186 -17.962577 -34.687475 4.608178 7.516201 85.845913 5.129991 2.643787 -15.713652 0.530733 -0.016668 0.319892 0.022726 -14.800581 -46.325648 15.165891 168.128208 78.689877 163.504985 -0.515336 -15.830611 1.530086 -1.107256 -3.278411 -0.474462
-56.496982 53.756442 48.613439 -179.620546 -31.966919 -10.809644 0.246440 13.663911 5.760961 0.036431 7.960862 2.134805 0.092757 9.950366 2.675814 0.036391 7.960832 2.134770 4.027360 22.315746 -1.855453 4.790921 -1.710625 -2.945977 -0.442124 0.878814 -3.165331 -16.011227 -3.542455 4.260731 -7.939263 -82.077547 22.065778 10.171252 -4.025534 -12.896863 -9.909375 2.668637 -3.728509 8.618057 -2.363780 -0.392580 -108.718964 -81.685233 115.709724 17.622065 -12.024490 -2.813821 -17.971381 -34.755996 4.587000 7.839782 85.918760 5.433970 2.660033 -15.775655 0.521091 -0.063999 0.340185 0.032445 -14.800551 -46.355302 15.152040 168.165995 78.692538 163.526403 -0.549077 -15.858212 1.545765 -1.087377 -3.244333 -0.467593
-56.506190 53.789717 48.612164 -179.593655 -31.956557 -10.796870 0.227507 13.687762 5.746787 0.029963 7.961973 2.132906 0.088726 9.975398 2.681026 0.031603 7.972408 2.136338 4.024042 22.288003 -1.864424 4.786962 -1.740735 -2.948530 -0.428645 0.811468 -3.190912 -16.006279 -3.533989 4.254756 -7.611690 -82.057945 21.801779 10.185095 -4.016227 -12.896292 -9.902807 2.677829 -3.714649 8.589327 -2.414028 -0.415032 -108.615780 -81.744751 115.580545 17.552381 -11.928942 -2.898964 -17.963749 -34.815951 4.567246 7.934795 85.994819 5.514346 2.625656 -15.822482 0.552880 -0.068442 0.351874 0.029087 -14.789897 -46.373681 15.125601 168.193794 78.693845 163.545342 -0.584135 -15.892447 1.553618 -1.064911 -3.206068 -0.460769
-56.518263 53.818476 48.614067 -179.560781 -31.933512 -10.778376 0.193760 13.684539 5.717084 0.025496 7.957436 2.130207 0.087067 10.021663 2.692333 0.025997 7.984765 2.137658 4.020948 22.260072 -1.876553 4.783026 -1.769570 -2.952914 -0.401603 0.744211 -3.245718 -16.015961 -3.518096 4.276260 -7.133001 -82.049092 21.391887 10.193562 -4.023905 -12.920054 -9.893112 2.635103 -3.710219 8.570313 -2.416090 -0.416910 -108.613287 -81.787048 115.551031 17.497374 -11.834907 -2.980199 -17.964654 -34.891319 4.525105 8.102344 86.069318 5.682846 2.605868 -15.873239 0.559654 -0.069131 0.362620 0.023557 -14.778134 -46.404167 15.087851 168.239859 78.695786 163.588994 -0.646891 -15.961581 1.552019 -1.013115 -3.133490 -0.434039
-56.531348 53.846299 48.614980 -179.535678 -31.929132 -10.756039 0.170469 13.698772 5.688162 0.026134 7.984303 2.137883 0.079483 10.036278 2.694953 0.020728 7.998006 2.138914 4.016198 22.231878 -1.891954 4.781091 -1.802525 -2.968436 -0.358634 0.676652 -3.327083 -15.991166 -3.493063 4.266182 -7.119532 -82.048990 21.386355 10.189187 -4.038589 -12.954932 -9.882939 2.598507 -3.702643 8.546769 -2.404720 -0.407278 -108.753427 -81.821794 115.674925 17.446649 -11.767757 -3.051076 -17.945396 -34.950444 4.473657 8.231991 86.141920 5.814948 2.591687 -15.916329 0.570248 -0.073643 0.368244 0.017843 -14.741658 -46.417690 15.047525 168.285093 78.704584 163.622908 -0.699709 -16.008665 1.575044 -0.982122 -3.078211 -0.419333
-56.544968 53.872225 48.617324 -179.504753 -31.922283 -10.737000 0.146801 13.720787 5.667699 0.026288 8.037081 2.156521 0.068100 10.013810 2.683076 0.016466 8.011433 2.140897 4.007796 22.204524 -1.910915 4.775973 -1.834473 -2.986860 -0.332549 0.611895 -3.394512 -15.971829 -3.483603 4.272656 -6.924171 -82.045981 21.211733 10.150758 -4.053879 -13.007805 -9.876052 2.567888 -3.696213 8.529368 -2.407631 -0.406947 -108.786115 -81.831620 115.695118 17.400357 -11.727236 -3.113823 -17.949547 -35.007213 4.432811 8.193477 86.211777 5.757019 2.619879 -15.960796 0.566423 -0.072214 0.371000 0.013015 -14.731660 -46.445894 15.014395 168.188784 78.693939 163.499830 -0.724054 -16.006995 1.600419 -0.998126 -3.067535 -0.416713
-56.557532 53.897875 48.619610 -179.484624 -31.925735 -10.719195 0.133211 13.753603 5.655758 0.021105 8.028865 2.150505 0.067518 10.034869 2.689868 0.015726 8.036963 2.146837 3.997353 22.179698 -1.931718 4.769131 -1.863537 -3.006820 -0.326179 0.547370 -3.432754 -15.931327 -3.482185 4.249551 -6.892201 -82.040134 21.189575 10.183650 -4.069645 -13.028514 -9.874313 2.528183 -3.693800 8.519424 -2.419795 -0.413336 -108.766477 -81.829668 115.671363 17.332359 -11.695865 -3.175794 -17.945903 -35.051064 4.408847 7.934507 86.276846 5.472213 2.624921 -15.999763 0.584329 -0.077809 0.379994 0.012224 -14.702910 -46.453255 14.983330 168.201358 78.698805 163.498838 -0.770304 -16.040194 1.624008 -0.959201 -3.025303 -0.415835
-56.573075 53.920275 48.625605 -179.451448 -31.904675 -10.687658 0.112195 13.777158 5.640144 0.003552 8.005289 2.130143 0.063696 10.030232 2.686103 0.021525 8.085873 2.159669 3.986661 22.157798 -1.952510 4.763341 -1.896407 -3.017743 -0.322528 0.487806 -3.466482 -15.891121 -3.480928 4.227605 -6.995542 -82.034842 21.297847 10.211049 -4.092734 -13.038580 -9.874071 2.491924 -3.686303 8.507771 -2.430308 -0.421095 -108.741146 -81.819951 115.642254 17.249500 -11.683965 -3.233610 -17.951512 -35.125432 4.353383 8.055434 86.341808 5.579520 2.628972 -16.038262 0.587142 -0.077143 0.390495 0.011622 -14.659033 -46.481205 14.935481 168.303909 78.716979 163.589702 -0.854647 -16.116128 1.638349 -0.892404 -2.937461 -0.383063
-56.582519 53.945995 48.628236 -179.443109 -31.920797 -10.675615 0.112105 13.807239 5.635244 0.014076 8.052803 2.150328 0.051768 10.017875 2.673696 0.022457 8.093094 2.161276 3.975364 22.139283 -1.973851 4.758123 -1.927002 -3.026942 -0.306723 0.434635 -3.513389 -15.865942 -3.474172 4.222311 -7.191804 -82.032185 21.496552 10.216910 -4.109161 -13.043508 -9.871995 2.459298 -3.676312 8.494097 -2.431445 -0.414953 -108.604355 -81.787591 115.502780 17.188220 -11.690879 -3.295761 -17.943815 -35.149127 4.334863 7.885643 86.394380 5.386749 2.651668 -16.068711 0.596107 -0.087464 0.400864 0.015612 -14.633118 -46.471590 14.916398 168.357892 78.725038 163.633375 -0.874622 -16.147682 1.630610 -0.875063 -2.897774 -0.362447
-56.590322 53.972025 48.630974 -179.436284 -31.941901 -10.666376 0.110028 13.833101 5.626189 0.020879 8.073331 2.162308 0.061366 10.074996 2.691589 0.010670 8.060347 2.147664 3.965124 22.125229 -1.995732 4.748244 -1.927232 -3.068540 -0.255005 0.403122 -3.591054 -15.884325 -3.471883 4.252177 -7.449916 -82.029233 21.747157 10.228781 -4.127316 -12.941132 -9.866007 2.429630 -3.666884 8.474505 -2.431656 -0.413447 -108.092339 -81.658789 115.002374 17.205287 -11.701430 -3.375071 -17.935492 -35.163655 4.322881 7.713712 86.441555 5.190102 2.663857 -16.095526 0.610421 -0.085785 0.409634 0.016937 -14.614057 -46.458293 14.898759 168.386862 78.729667 163.652505 -0.884633 -16.166241 1.633233 -0.867195 -2.871111 -0.357934
